<?xml version="1.0" standalone="no"?>
<svg xmlns:xlink="http://www.w3.org/1999/xlink" id="wave" style="transform:rotate(0deg); transition: 0.3s" viewBox="0 0 1440 260" version="1.1" xmlns="http://www.w3.org/2000/svg"><defs><linearGradient id="sw-gradient-0" x1="0" x2="0" y1="1" y2="0"><stop stop-color="rgba(255, 255, 255, 1)" offset="0%"/><stop stop-color="rgba(244, 178, 58, 1)" offset="100%"/></linearGradient></defs><path style="transform:translate(0, 0px); opacity:1" fill="url(#sw-gradient-0)" d="M0,78L30,69.3C60,61,120,43,180,56.3C240,69,300,113,360,130C420,147,480,139,540,138.7C600,139,660,147,720,164.7C780,182,840,208,900,221C960,234,1020,234,1080,203.7C1140,173,1200,113,1260,86.7C1320,61,1380,69,1440,91C1500,113,1560,147,1620,169C1680,191,1740,199,1800,208C1860,217,1920,225,1980,195C2040,165,2100,95,2160,56.3C2220,17,2280,9,2340,4.3C2400,0,2460,0,2520,17.3C2580,35,2640,69,2700,82.3C2760,95,2820,87,2880,73.7C2940,61,3000,43,3060,65C3120,87,3180,147,3240,164.7C3300,182,3360,156,3420,147.3C3480,139,3540,147,3600,130C3660,113,3720,69,3780,69.3C3840,69,3900,113,3960,112.7C4020,113,4080,69,4140,52C4200,35,4260,43,4290,47.7L4320,52L4320,260L4290,260C4260,260,4200,260,4140,260C4080,260,4020,260,3960,260C3900,260,3840,260,3780,260C3720,260,3660,260,3600,260C3540,260,3480,260,3420,260C3360,260,3300,260,3240,260C3180,260,3120,260,3060,260C3000,260,2940,260,2880,260C2820,260,2760,260,2700,260C2640,260,2580,260,2520,260C2460,260,2400,260,2340,260C2280,260,2220,260,2160,260C2100,260,2040,260,1980,260C1920,260,1860,260,1800,260C1740,260,1680,260,1620,260C1560,260,1500,260,1440,260C1380,260,1320,260,1260,260C1200,260,1140,260,1080,260C1020,260,960,260,900,260C840,260,780,260,720,260C660,260,600,260,540,260C480,260,420,260,360,260C300,260,240,260,180,260C120,260,60,260,30,260L0,260Z"/></svg>